<svg aria-hidden="true" style="position:absolute;width:0;height:0" xmlns="http://www.w3.org/2000/svg" overflow="hidden"><defs><symbol id="close" viewBox="0 0 32 32"><path d="M26.667 7.303l-1.97-1.97-7.808 7.808-7.808-7.808-1.97 1.97 7.808 7.808-7.808 7.808 1.97 1.97 7.808-7.808 7.808 7.808 1.97-1.97-7.808-7.808 7.808-7.808z"/></symbol><symbol id="email" viewBox="0 0 32 32"><path d="M26.667 5.333H5.334A2.663 2.663 0 002.681 8l-.013 16c0 1.467 1.2 2.667 2.667 2.667h21.333c1.467 0 2.667-1.2 2.667-2.667V8c0-1.467-1.2-2.667-2.667-2.667zM26.133 11l-9.427 5.893a1.346 1.346 0 01-1.413 0L5.866 11a1.132 1.132 0 111.2-1.92l8.933 5.587 8.933-5.587a1.132 1.132 0 111.2 1.92z"/></symbol><symbol id="phone" viewBox="0 0 32 32"><path d="M24.881 19.773l-3.268-.373a2.561 2.561 0 00-2.11.733L17.136 22.5a19.357 19.357 0 01-8.478-8.478l2.38-2.38a2.561 2.561 0 00.733-2.11l-.373-3.242a2.575 2.575 0 00-2.56-2.277H6.612c-1.454 0-2.663 1.209-2.573 2.663.682 10.987 9.469 19.761 20.443 20.443 1.454.09 2.663-1.119 2.663-2.573V22.32a2.55 2.55 0 00-2.264-2.547z"/></symbol><symbol id="facebook" viewBox="0 0 32 32"><path d="M21.329 5.313h2.921V.225C23.746.156 22.013 0 19.994 0c-4.212 0-7.097 2.649-7.097 7.519V12H8.249v5.688h4.648V32h5.699V17.689h4.46l.708-5.688h-5.169V8.082c.001-1.644.444-2.769 2.735-2.769z"/></symbol><symbol id="instagram" viewBox="0 0 32 32"><path d="M31.969 9.408c-.075-1.7-.35-2.869-.744-3.882a7.806 7.806 0 00-1.851-2.838A7.867 7.867 0 0026.542.844C25.523.45 24.36.175 22.66.1 20.947.019 20.403 0 16.059 0s-4.888.019-6.595.094c-1.7.075-2.869.35-3.882.744a7.803 7.803 0 00-2.838 1.85A7.867 7.867 0 00.9 5.52C.506 6.539.231 7.702.156 9.402c-.081 1.713-.1 2.257-.1 6.601s.019 4.888.094 6.595c.075 1.7.35 2.869.744 3.882a7.895 7.895 0 001.85 2.838 7.867 7.867 0 002.832 1.844c1.019.394 2.182.669 3.882.744 1.706.075 2.25.094 6.595.094s4.888-.019 6.595-.094c1.7-.075 2.869-.35 3.882-.744a8.184 8.184 0 004.682-4.682c.394-1.019.669-2.182.744-3.882.075-1.707.094-2.251.094-6.595s-.006-4.888-.081-6.595zm-2.882 13.065c-.069 1.563-.331 2.407-.55 2.969a5.31 5.31 0 01-3.038 3.038c-.563.219-1.413.481-2.969.55-1.688.075-2.194.094-6.464.094s-4.782-.019-6.464-.094c-1.563-.069-2.407-.331-2.969-.55a4.926 4.926 0 01-1.838-1.194 4.974 4.974 0 01-1.194-1.838c-.219-.563-.481-1.413-.55-2.969-.075-1.688-.094-2.194-.094-6.464s.019-4.782.094-6.464c.069-1.563.331-2.407.55-2.969a4.868 4.868 0 011.2-1.838A4.974 4.974 0 016.639 3.55c.563-.219 1.413-.481 2.969-.55 1.688-.075 2.194-.094 6.464-.094 4.276 0 4.782.019 6.464.094 1.563.069 2.407.331 2.969.55a4.914 4.914 0 011.838 1.194 4.974 4.974 0 011.194 1.838c.219.563.481 1.413.55 2.969.075 1.688.094 2.194.094 6.464s-.019 4.77-.094 6.458z"/><path d="M16.059 7.783c-4.538 0-8.22 3.682-8.22 8.22s3.682 8.22 8.22 8.22c4.539 0 8.22-3.682 8.22-8.22s-3.682-8.22-8.22-8.22zm0 13.552a5.333 5.333 0 010-10.664 5.333 5.333 0 010 10.664zM26.524 7.458a1.919 1.919 0 11-3.838 0 1.919 1.919 0 013.838 0z"/></symbol><symbol id="linkedin" viewBox="0 0 32 32"><path d="M31.992 32v-.001H32V20.263c0-5.741-1.236-10.164-7.948-10.164-3.227 0-5.392 1.771-6.276 3.449h-.093v-2.913h-6.364v21.364h6.627V21.42c0-2.785.528-5.479 3.977-5.479 3.399 0 3.449 3.179 3.449 5.657v10.401h6.62zM.528 10.636h6.635V32H.528V10.636zM3.843 0C1.722 0 0 1.721 0 3.843s1.721 3.879 3.843 3.879c2.121 0 3.843-1.757 3.843-3.879A3.846 3.846 0 003.843 0z"/></symbol><symbol id="current-img" viewBox="0 0 288 32"><path d="M0 0h288v32H0V0z"/></symbol><symbol id="next-img" viewBox="0 0 128 32"><path d="M0 0h128v32H0V0z"/></symbol><symbol id="icon-facebook-1" viewBox="0 0 32 32"><path d="M21.329 5.313h2.921V.225C23.746.156 22.013 0 19.994 0c-4.212 0-7.097 2.649-7.097 7.519V12H8.249v5.688h4.648V32h5.699V17.689h4.46l.708-5.688h-5.169V8.082c.001-1.644.444-2.769 2.735-2.769z"/></symbol><symbol id="icon-instagram-2" viewBox="0 0 32 32"><path d="M31.969 9.408c-.075-1.7-.35-2.869-.744-3.882a7.806 7.806 0 00-1.851-2.838A7.867 7.867 0 0026.542.844C25.523.45 24.36.175 22.66.1 20.947.019 20.403 0 16.059 0s-4.888.019-6.595.094c-1.7.075-2.869.35-3.882.744a7.803 7.803 0 00-2.838 1.85A7.867 7.867 0 00.9 5.52C.506 6.539.231 7.702.156 9.402c-.081 1.713-.1 2.257-.1 6.601s.019 4.888.094 6.595c.075 1.7.35 2.869.744 3.882a7.895 7.895 0 001.85 2.838 7.867 7.867 0 002.832 1.844c1.019.394 2.182.669 3.882.744 1.706.075 2.25.094 6.595.094s4.888-.019 6.595-.094c1.7-.075 2.869-.35 3.882-.744a8.184 8.184 0 004.682-4.682c.394-1.019.669-2.182.744-3.882.075-1.707.094-2.251.094-6.595s-.006-4.888-.081-6.595zm-2.882 13.065c-.069 1.563-.331 2.407-.55 2.969a5.31 5.31 0 01-3.038 3.038c-.563.219-1.413.481-2.969.55-1.688.075-2.194.094-6.464.094s-4.782-.019-6.464-.094c-1.563-.069-2.407-.331-2.969-.55a4.926 4.926 0 01-1.838-1.194 4.974 4.974 0 01-1.194-1.838c-.219-.563-.481-1.413-.55-2.969-.075-1.688-.094-2.194-.094-6.464s.019-4.782.094-6.464c.069-1.563.331-2.407.55-2.969a4.868 4.868 0 011.2-1.838A4.974 4.974 0 016.639 3.55c.563-.219 1.413-.481 2.969-.55 1.688-.075 2.194-.094 6.464-.094 4.276 0 4.782.019 6.464.094 1.563.069 2.407.331 2.969.55a4.914 4.914 0 011.838 1.194 4.974 4.974 0 011.194 1.838c.219.563.481 1.413.55 2.969.075 1.688.094 2.194.094 6.464s-.019 4.77-.094 6.458z"/><path d="M16.059 7.783c-4.538 0-8.22 3.682-8.22 8.22s3.682 8.22 8.22 8.22c4.539 0 8.22-3.682 8.22-8.22s-3.682-8.22-8.22-8.22zm0 13.552a5.333 5.333 0 010-10.664 5.333 5.333 0 010 10.664zM26.524 7.458a1.919 1.919 0 11-3.838 0 1.919 1.919 0 013.838 0z"/></symbol><symbol id="icon-linkedin-1" viewBox="0 0 32 32"><path d="M31.992 32v-.001H32V20.263c0-5.741-1.236-10.164-7.948-10.164-3.227 0-5.392 1.771-6.276 3.449h-.093v-2.913h-6.364v21.364h6.627V21.42c0-2.785.528-5.479 3.977-5.479 3.399 0 3.449 3.179 3.449 5.657v10.401h6.62zM.528 10.636h6.635V32H.528V10.636zM3.843 0C1.722 0 0 1.721 0 3.843s1.721 3.879 3.843 3.879c2.121 0 3.843-1.757 3.843-3.879A3.846 3.846 0 003.843 0z"/></symbol><symbol id="icon-phone" viewBox="0 0 32 32"><path fill="none" stroke="var(--color1, #ffffff)" stroke-linejoin="round" stroke-linecap="round" stroke-width="1.333" d="M26.667 21.337v3.227A2.145 2.145 0 0124.32 26.7l.009.001c-3.481-.388-6.626-1.563-9.338-3.343l.081.05a21.09 21.09 0 01-6.386-6.353l-.05-.083a20.982 20.982 0 01-3.285-9.205l-.008-.095a2.145 2.145 0 012.136-2.338h3.239c1.079 0 1.972.797 2.123 1.834l.001.012c.136 1.029.387 2.04.751 3.013a2.144 2.144 0 01-.483 2.264l-1.363 1.361c1.555 2.7 3.736 4.881 6.353 6.392l.083.044 1.363-1.361a2.14 2.14 0 012.278-.477l-.015-.005c.973.363 1.984.613 3.013.751a2.148 2.148 0 011.847 2.125l-.001.056v-.003z"/></symbol><symbol id="icon-mail" viewBox="0 0 32 32"><path fill="none" stroke="var(--color1, #ffffff)" stroke-linejoin="round" stroke-linecap="round" stroke-width="1.333" d="M6.4 6.667h19.2C26.92 6.667 28 7.716 28 9v14c0 1.283-1.08 2.333-2.4 2.333H6.4C5.08 25.333 4 24.282 4 23V9c0-1.284 1.08-2.333 2.4-2.333z"/><path fill="none" stroke="var(--color1, #ffffff)" stroke-linejoin="round" stroke-linecap="round" stroke-width="1.333" d="M26.667 9.333l-10.667 8-10.667-8"/></symbol><symbol id="icon-twitter-1" viewBox="0 0 32 32"><path d="M32 6.078c-1.19.522-2.458.868-3.78 1.036a6.523 6.523 0 002.886-3.626 13.11 13.11 0 01-4.16 1.588A6.574 6.574 0 0022.154 3c-3.632 0-6.556 2.948-6.556 6.562 0 .52.044 1.02.152 1.496-5.454-.266-10.28-2.88-13.522-6.862a6.605 6.605 0 00-.898 3.316 6.57 6.57 0 002.914 5.452 6.479 6.479 0 01-2.964-.808v.072c0 3.188 2.274 5.836 5.256 6.446a6.548 6.548 0 01-1.72.216 5.8 5.8 0 01-1.242-.112c.85 2.598 3.262 4.508 6.13 4.57a13.182 13.182 0 01-8.134 2.798c-.538 0-1.054-.024-1.57-.09A18.469 18.469 0 0010.064 29c12.072 0 18.672-10 18.672-18.668 0-.29-.01-.57-.024-.848A13.087 13.087 0 0032 6.078z"/></symbol><symbol id="iconclose-btn" viewBox="0 0 32 32"><path d="M26.667 7.303l-1.97-1.97-7.808 7.808-7.808-7.808-1.97 1.97 7.808 7.808-7.808 7.808 1.97 1.97 7.808-7.808 7.808 7.808 1.97-1.97-7.808-7.808 7.808-7.808z"/></symbol><symbol id="mail" viewBox="0 0 43 32"><path d="M38.667 0H4C1.794 0 0 1.675 0 3.734v22.404c0 2.059 1.794 3.734 4 3.734h34.667c2.206 0 4-1.675 4-3.734V3.734c0-2.059-1.794-3.734-4-3.734zm0 2.489c.181 0 .353.035.511.096L21.334 17.022 3.49 2.585c.158-.061.33-.096.511-.096h34.667zm0 24.894H4c-.736 0-1.333-.558-1.333-1.245V5.216L20.46 19.611c.251.203.563.304.874.304s.622-.101.874-.304L40.001 5.216v20.922c0 .687-.598 1.245-1.333 1.245z"/></symbol><symbol id="twitter" viewBox="0 0 32 32"><path d="M32 6.078c-1.19.522-2.458.868-3.78 1.036a6.523 6.523 0 002.886-3.626 13.11 13.11 0 01-4.16 1.588A6.574 6.574 0 0022.154 3c-3.632 0-6.556 2.948-6.556 6.562 0 .52.044 1.02.152 1.496-5.454-.266-10.28-2.88-13.522-6.862a6.605 6.605 0 00-.898 3.316 6.57 6.57 0 002.914 5.452 6.479 6.479 0 01-2.964-.808v.072c0 3.188 2.274 5.836 5.256 6.446a6.548 6.548 0 01-1.72.216 5.8 5.8 0 01-1.242-.112c.85 2.598 3.262 4.508 6.13 4.57a13.182 13.182 0 01-8.134 2.798c-.538 0-1.054-.024-1.57-.09A18.469 18.469 0 0010.064 29c12.072 0 18.672-10 18.672-18.668 0-.29-.01-.57-.024-.848A13.087 13.087 0 0032 6.078z"/></symbol><symbol id="cross" viewBox="0 0 32 32"><path d="M23.734 10.304l-1.504-1.504-5.963 5.962-5.962-5.962-1.504 1.504 5.962 5.962-5.962 5.963 1.504 1.504 5.962-5.963 5.963 5.963 1.504-1.504-5.963-5.963 5.963-5.962z"/></symbol><symbol id="menu" viewBox="0 0 32 32"><path d="M6.4 11.734v-2.134h19.2v2.134h-19.2zM6.4 17.066h19.2v-2.133h-19.2v2.133zM6.4 22.4h19.2v-2.134h-19.2v2.134z"/></symbol><symbol id="icon-map" viewBox="0 0 32 32"><path fill="none" stroke="var(--color1, #ffffff)" stroke-linejoin="round" stroke-linecap="round" stroke-width="1.333" d="M26.667 13.819C26.667 21.454 16 28 16 28S5.333 21.453 5.333 13.819C5.333 8.396 10.109 4 16 4s10.667 4.396 10.667 9.819v0z"/><path fill="none" stroke="var(--color1, #ffffff)" stroke-linejoin="round" stroke-linecap="round" stroke-width="1.333" d="M16 18.667a4 4 0 000-8v0a4 4 0 000 8v0z"/></symbol><symbol id="logo" width="69" height="56"><g clip-path="url(#clip0)"><path d="M39.15 16.87l-1.31-1a1 1 0 00-1.4.14L18.31 36.83l.28.31L23.08 33a.69.69 0 01.27-1.33.68.68 0 01.65.48l5.92-5.49a.51.51 0 01.64 0l.3.22a.5.5 0 00.67-.08l7.74-8.68a.83.83 0 00-.12-1.25z"/><path d="M47.67 22.73a40.449 40.449 0 01-13.12 6.15A71.154 71.154 0 0120.28 31c.097.71.271 1.408.52 2.08 2.72 2.46 23.2-1.74 27.2-6.6.85-1.01-.33-3.75-.33-3.75zM23.35 33a.68.68 0 11.68-.68.669.669 0 01-.68.68zM4 21.29l.16-.69 2.6.59c.215.396.347.831.39 1.28.05.475.02.955-.09 1.42a3.76 3.76 0 01-.86 1.74 3.43 3.43 0 01-1.54 1 3.65 3.65 0 01-1.89.07 3.51 3.51 0 01-1.67-.88 3.3 3.3 0 01-.95-1.57 3.78 3.78 0 010-2c.107-.49.3-.957.57-1.38a2.92 2.92 0 011-.93l.36.55a2.86 2.86 0 00-1.32 1.94A3.12 3.12 0 00.79 24c.134.486.4.926.77 1.27.38.367.854.62 1.37.73.5.14 1.03.14 1.53 0 .48-.158.91-.437 1.25-.81.35-.403.59-.888.7-1.41a3.07 3.07 0 00-.12-1.91L4 21.29zM9.66 15l-2.33 3.11 1 1.79-.46.62-3.7-6.75.43-.59 7.53 1.62-.47.62-2-.42zM9 14.84l-4-.9 2 3.59 2-2.69zM9 8.55l.6-.45 3.81 5.1 3.14-2.35.38.51-3.73 2.79L9 8.55zM15.3 4.38l.67-.3 2.64 5.78 3.57-1.62.26.58-4.24 1.93-2.9-6.37zM28.48 6.68l.15.63-4.82 1.13-1.6-6.82L26.89.53l.14.62-4 .93.57 2.42 3.52-.83.15.62-3.53.82.6 2.53 4.14-.96zM35.35 6.93l-1.67-2.2c-.187.01-.373.01-.56 0l-1.88.06.07 2.22h-.74l-.23-7L33 0a3.16 3.16 0 012.12.57 2.2 2.2 0 01.82 1.74c.03.494-.1.985-.37 1.4a2.33 2.33 0 01-1.16.85l1.75 2.34-.81.03zm-.7-3.29a1.59 1.59 0 00.51-1.31 1.608 1.608 0 00-.59-1.28A2.43 2.43 0 0033 .64l-1.9.07.12 3.5 1.86-.06a2.4 2.4 0 001.57-.51zM40.64 5.07l-.36 2.39-.73-.11.37-2.35-2.07-5 .78.12 1.77 4.26 3-3.53.7.15-3.46 4.07zM50.53 4.65l.87 1.13-.38.3-.87-1.16-.55 1.31-.42-.18.56-1.31-1.44.19v-.48l1.42-.16-.88-1.13.39-.3L50 4l.54-1.32.43.18-.51 1.34L51.9 4v.49l-1.37.16zM53.87 12.71a2.77 2.77 0 01-.43-1.21l.59-.26c.044.396.174.778.38 1.12.223.383.515.722.86 1a2.35 2.35 0 001.3.63 1.09 1.09 0 00.94-.39.9.9 0 00.23-.68 1.841 1.841 0 00-.24-.69 10.48 10.48 0 00-.61-.89 9.087 9.087 0 01-.72-1.1 2 2 0 01-.26-.94c0-.37.139-.728.39-1a1.83 1.83 0 01.83-.57 2 2 0 011.11 0 3.68 3.68 0 011.27.72c.308.256.58.552.81.88.212.304.371.642.47 1l-.57.3a3.52 3.52 0 00-.44-.94 3.611 3.611 0 00-.67-.69 2.22 2.22 0 00-1.29-.61 1.08 1.08 0 00-.94.41.86.86 0 00-.23.68c.023.252.106.495.24.71.14.23.34.53.61.89.268.34.508.702.72 1.08a2 2 0 01.27.94c0 .37-.139.728-.39 1a1.78 1.78 0 01-.84.57 1.92 1.92 0 01-1.11 0 3.71 3.71 0 01-1.28-.72 4.549 4.549 0 01-1-1.24zM63.93 14.17l-1.41-2 .52-.37 3.25 4.64-.52.37-1.41-2-5.22 3.65-.42-.61 5.21-3.68zM61.69 22.39a3.319 3.319 0 011-1.56 3.55 3.55 0 011.64-.83 3.62 3.62 0 011.88.07 3.56 3.56 0 011.53 1 3.75 3.75 0 01.85 1.74 3.811 3.811 0 010 1.93 3.421 3.421 0 01-1 1.56 3.71 3.71 0 01-3.57.78 3.35 3.35 0 01-1.53-1 3.76 3.76 0 01-.85-1.73 3.849 3.849 0 01.05-1.96zM63 25.57c.334.38.767.66 1.25.81a3.1 3.1 0 002.9-.64c.37-.34.642-.77.79-1.25a3.22 3.22 0 00-.65-2.94 2.85 2.85 0 00-1.29-.81 3 3 0 00-1.54 0 2.76 2.76 0 00-1.36.69 2.79 2.79 0 00-.79 1.26 3 3 0 000 1.55 2.9 2.9 0 00.69 1.33zM60.93 34l2.59-1c0-.18.06-.36.11-.55l.49-1.81-2.12-.55.19-.71 6.76 1.81-.68 2.53a3.17 3.17 0 01-1.16 1.86 2.161 2.161 0 01-1.9.28 2.17 2.17 0 01-1.71-2.11l-2.76 1 .19-.75zm3.35.28a1.8 1.8 0 002.51.67 2.39 2.39 0 00.85-1.41l.48-1.8-3.39-.91-.48 1.8a2.41 2.41 0 00.03 1.65zM57.34 40.44l-.51-.39 3-3.95 5.58 4.23-2.9 3.83-.51-.39 2.45-3.23-2-1.51-2.19 2.89-.5-.38L62 38.65l-2.07-1.57-2.59 3.36zM55 48.41l-1.43.08v-.48L55 48l-.77-1.19.39-.25.76 1.2.62-1.34.43.23-.68 1.26 1.43-.08v.49h-1.45l.77 1.19-.39.25-.76-1.2-.66 1.3-.42-.24.73-1.21zM42 47.61l1.21.67a3.109 3.109 0 012-1.58 3.16 3.16 0 011.23-.13 2 2 0 011 .36c.266.2.463.48.56.8.12.395.1.82-.06 1.2a5 5 0 01-1 1.39c.33.177.636.395.91.65.189.195.329.431.41.69a1.332 1.332 0 01-.26 1.17 1.92 1.92 0 01-1.12.77c-.4.152-.84.152-1.24 0a1.25 1.25 0 01-.72-.85 1.36 1.36 0 01.07-1 4.8 4.8 0 01.89-1.23l-2.41-1.34c-.092.47-.112.953-.06 1.43h-.61a4.778 4.778 0 01.2-1.74l-1.26-.7.26-.56zm1.74 1l2.65 1.47a4.18 4.18 0 00.85-1.15c.11-.29.11-.61 0-.9a1.08 1.08 0 00-.7-.75 2 2 0 00-1.28 0 2.4 2.4 0 00-1.56 1.3l.04.03zm3.76 4a.9.9 0 00.08-.74 1.23 1.23 0 00-.32-.52 4.322 4.322 0 00-.83-.55 5.22 5.22 0 00-.79 1 1 1 0 00-.08.74.84.84 0 00.44.53c.255.096.535.096.79 0a1.19 1.19 0 00.67-.47l.04.01zM29.81 55.32l.14-7h.71l-.11 5.6 2.84-4.66h.35L36.4 54l.1-5.57h.71l-.13 7h-.61l-2.94-5.23-3.11 5.13-.61-.01zM26.33 48a3.41 3.41 0 01.91 3.46 3.56 3.56 0 01-.95 1.63 3.36 3.36 0 01-1.61.88 3.88 3.88 0 01-1.94-.06 3.76 3.76 0 01-1.68-.91 3.36 3.36 0 01-.93-1.58 3.69 3.69 0 011-3.52 3.45 3.45 0 011.58-.9 3.85 3.85 0 011.93.06 3.77 3.77 0 011.69.94zm-3.41-.35a2.67 2.67 0 00-1.29.72 2.89 2.89 0 00-.76 1.33c-.14.5-.14 1.03 0 1.53.118.487.371.93.73 1.28a3.07 3.07 0 001.35.77 3.14 3.14 0 001.55 0c.49-.12.938-.369 1.3-.72a2.94 2.94 0 00.76-1.33 2.88 2.88 0 000-1.54 2.81 2.81 0 00-.74-1.28 3 3 0 00-1.36-.76 2.89 2.89 0 00-1.54 0zM15.35 43l.27 2.75c.171.073.339.157.5.25l1.63.94 1.1-1.94.65.37L16 51.4l-2.28-1.31a3.18 3.18 0 01-1.5-1.6 2.2 2.2 0 01.22-1.9c.232-.438.6-.79 1.05-1a2.32 2.32 0 011.44-.11l-.29-2.94.71.46zm-1.14 3.16a1.802 1.802 0 00-1.29 2.25c.234.518.64.938 1.15 1.19l1.61.93 1.75-3-1.61-.93a2.47 2.47 0 00-1.61-.49v.05zM9.43 38.31l.45-.45 3.45 3.55-5 4.88L5 42.85l.46-.45 2.83 2.91L10 43.58 7.52 41l.48-.46 2.53 2.6 1.86-1.81-2.96-3.02zM2 34.38L2.24 33l.47.07-.27 1.42L3.77 34l.16.44-1.35.46 1.11.94-.32.36-1.07-1-.25 1.42-.48-.09.28-1.42-1.34.48-.15-.39 1.34-.47-1.11-.93.33-.36 1.08.94z"/></g><defs><clipPath id="clip0"><path d="M0 0h68.93v55.46H0z"/></clipPath>width="69" height="56"><g clip-path="url(#clip0)"><path d="M39.15 16.87l-1.31-1a1 1 0 00-1.4.14L18.31 36.83l.28.31L23.08 33a.69.69 0 01.27-1.33.68.68 0 01.65.48l5.92-5.49a.51.51 0 01.64 0l.3.22a.5.5 0 00.67-.08l7.74-8.68a.83.83 0 00-.12-1.25z"/><path d="M47.67 22.73a40.449 40.449 0 01-13.12 6.15A71.154 71.154 0 0120.28 31c.097.71.271 1.408.52 2.08 2.72 2.46 23.2-1.74 27.2-6.6.85-1.01-.33-3.75-.33-3.75zM23.35 33a.68.68 0 11.68-.68.669.669 0 01-.68.68zM4 21.29l.16-.69 2.6.59c.215.396.347.831.39 1.28.05.475.02.955-.09 1.42a3.76 3.76 0 01-.86 1.74 3.43 3.43 0 01-1.54 1 3.65 3.65 0 01-1.89.07 3.51 3.51 0 01-1.67-.88 3.3 3.3 0 01-.95-1.57 3.78 3.78 0 010-2c.107-.49.3-.957.57-1.38a2.92 2.92 0 011-.93l.36.55a2.86 2.86 0 00-1.32 1.94A3.12 3.12 0 00.79 24c.134.486.4.926.77 1.27.38.367.854.62 1.37.73.5.14 1.03.14 1.53 0 .48-.158.91-.437 1.25-.81.35-.403.59-.888.7-1.41a3.07 3.07 0 00-.12-1.91L4 21.29zM9.66 15l-2.33 3.11 1 1.79-.46.62-3.7-6.75.43-.59 7.53 1.62-.47.62-2-.42zM9 14.84l-4-.9 2 3.59 2-2.69zM9 8.55l.6-.45 3.81 5.1 3.14-2.35.38.51-3.73 2.79L9 8.55zM15.3 4.38l.67-.3 2.64 5.78 3.57-1.62.26.58-4.24 1.93-2.9-6.37zM28.48 6.68l.15.63-4.82 1.13-1.6-6.82L26.89.53l.14.62-4 .93.57 2.42 3.52-.83.15.62-3.53.82.6 2.53 4.14-.96zM35.35 6.93l-1.67-2.2c-.187.01-.373.01-.56 0l-1.88.06.07 2.22h-.74l-.23-7L33 0a3.16 3.16 0 012.12.57 2.2 2.2 0 01.82 1.74c.03.494-.1.985-.37 1.4a2.33 2.33 0 01-1.16.85l1.75 2.34-.81.03zm-.7-3.29a1.59 1.59 0 00.51-1.31 1.608 1.608 0 00-.59-1.28A2.43 2.43 0 0033 .64l-1.9.07.12 3.5 1.86-.06a2.4 2.4 0 001.57-.51zM40.64 5.07l-.36 2.39-.73-.11.37-2.35-2.07-5 .78.12 1.77 4.26 3-3.53.7.15-3.46 4.07zM50.53 4.65l.87 1.13-.38.3-.87-1.16-.55 1.31-.42-.18.56-1.31-1.44.19v-.48l1.42-.16-.88-1.13.39-.3L50 4l.54-1.32.43.18-.51 1.34L51.9 4v.49l-1.37.16zM53.87 12.71a2.77 2.77 0 01-.43-1.21l.59-.26c.044.396.174.778.38 1.12.223.383.515.722.86 1a2.35 2.35 0 001.3.63 1.09 1.09 0 00.94-.39.9.9 0 00.23-.68 1.841 1.841 0 00-.24-.69 10.48 10.48 0 00-.61-.89 9.087 9.087 0 01-.72-1.1 2 2 0 01-.26-.94c0-.37.139-.728.39-1a1.83 1.83 0 01.83-.57 2 2 0 011.11 0 3.68 3.68 0 011.27.72c.308.256.58.552.81.88.212.304.371.642.47 1l-.57.3a3.52 3.52 0 00-.44-.94 3.611 3.611 0 00-.67-.69 2.22 2.22 0 00-1.29-.61 1.08 1.08 0 00-.94.41.86.86 0 00-.23.68c.023.252.106.495.24.71.14.23.34.53.61.89.268.34.508.702.72 1.08a2 2 0 01.27.94c0 .37-.139.728-.39 1a1.78 1.78 0 01-.84.57 1.92 1.92 0 01-1.11 0 3.71 3.71 0 01-1.28-.72 4.549 4.549 0 01-1-1.24zM63.93 14.17l-1.41-2 .52-.37 3.25 4.64-.52.37-1.41-2-5.22 3.65-.42-.61 5.21-3.68zM61.69 22.39a3.319 3.319 0 011-1.56 3.55 3.55 0 011.64-.83 3.62 3.62 0 011.88.07 3.56 3.56 0 011.53 1 3.75 3.75 0 01.85 1.74 3.811 3.811 0 010 1.93 3.421 3.421 0 01-1 1.56 3.71 3.71 0 01-3.57.78 3.35 3.35 0 01-1.53-1 3.76 3.76 0 01-.85-1.73 3.849 3.849 0 01.05-1.96zM63 25.57c.334.38.767.66 1.25.81a3.1 3.1 0 002.9-.64c.37-.34.642-.77.79-1.25a3.22 3.22 0 00-.65-2.94 2.85 2.85 0 00-1.29-.81 3 3 0 00-1.54 0 2.76 2.76 0 00-1.36.69 2.79 2.79 0 00-.79 1.26 3 3 0 000 1.55 2.9 2.9 0 00.69 1.33zM60.93 34l2.59-1c0-.18.06-.36.11-.55l.49-1.81-2.12-.55.19-.71 6.76 1.81-.68 2.53a3.17 3.17 0 01-1.16 1.86 2.161 2.161 0 01-1.9.28 2.17 2.17 0 01-1.71-2.11l-2.76 1 .19-.75zm3.35.28a1.8 1.8 0 002.51.67 2.39 2.39 0 00.85-1.41l.48-1.8-3.39-.91-.48 1.8a2.41 2.41 0 00.03 1.65zM57.34 40.44l-.51-.39 3-3.95 5.58 4.23-2.9 3.83-.51-.39 2.45-3.23-2-1.51-2.19 2.89-.5-.38L62 38.65l-2.07-1.57-2.59 3.36zM55 48.41l-1.43.08v-.48L55 48l-.77-1.19.39-.25.76 1.2.62-1.34.43.23-.68 1.26 1.43-.08v.49h-1.45l.77 1.19-.39.25-.76-1.2-.66 1.3-.42-.24.73-1.21zM42 47.61l1.21.67a3.109 3.109 0 012-1.58 3.16 3.16 0 011.23-.13 2 2 0 011 .36c.266.2.463.48.56.8.12.395.1.82-.06 1.2a5 5 0 01-1 1.39c.33.177.636.395.91.65.189.195.329.431.41.69a1.332 1.332 0 01-.26 1.17 1.92 1.92 0 01-1.12.77c-.4.152-.84.152-1.24 0a1.25 1.25 0 01-.72-.85 1.36 1.36 0 01.07-1 4.8 4.8 0 01.89-1.23l-2.41-1.34c-.092.47-.112.953-.06 1.43h-.61a4.778 4.778 0 01.2-1.74l-1.26-.7.26-.56zm1.74 1l2.65 1.47a4.18 4.18 0 00.85-1.15c.11-.29.11-.61 0-.9a1.08 1.08 0 00-.7-.75 2 2 0 00-1.28 0 2.4 2.4 0 00-1.56 1.3l.04.03zm3.76 4a.9.9 0 00.08-.74 1.23 1.23 0 00-.32-.52 4.322 4.322 0 00-.83-.55 5.22 5.22 0 00-.79 1 1 1 0 00-.08.74.84.84 0 00.44.53c.255.096.535.096.79 0a1.19 1.19 0 00.67-.47l.04.01zM29.81 55.32l.14-7h.71l-.11 5.6 2.84-4.66h.35L36.4 54l.1-5.57h.71l-.13 7h-.61l-2.94-5.23-3.11 5.13-.61-.01zM26.33 48a3.41 3.41 0 01.91 3.46 3.56 3.56 0 01-.95 1.63 3.36 3.36 0 01-1.61.88 3.88 3.88 0 01-1.94-.06 3.76 3.76 0 01-1.68-.91 3.36 3.36 0 01-.93-1.58 3.69 3.69 0 011-3.52 3.45 3.45 0 011.58-.9 3.85 3.85 0 011.93.06 3.77 3.77 0 011.69.94zm-3.41-.35a2.67 2.67 0 00-1.29.72 2.89 2.89 0 00-.76 1.33c-.14.5-.14 1.03 0 1.53.118.487.371.93.73 1.28a3.07 3.07 0 001.35.77 3.14 3.14 0 001.55 0c.49-.12.938-.369 1.3-.72a2.94 2.94 0 00.76-1.33 2.88 2.88 0 000-1.54 2.81 2.81 0 00-.74-1.28 3 3 0 00-1.36-.76 2.89 2.89 0 00-1.54 0zM15.35 43l.27 2.75c.171.073.339.157.5.25l1.63.94 1.1-1.94.65.37L16 51.4l-2.28-1.31a3.18 3.18 0 01-1.5-1.6 2.2 2.2 0 01.22-1.9c.232-.438.6-.79 1.05-1a2.32 2.32 0 011.44-.11l-.29-2.94.71.46zm-1.14 3.16a1.802 1.802 0 00-1.29 2.25c.234.518.64.938 1.15 1.19l1.61.93 1.75-3-1.61-.93a2.47 2.47 0 00-1.61-.49v.05zM9.43 38.31l.45-.45 3.45 3.55-5 4.88L5 42.85l.46-.45 2.83 2.91L10 43.58 7.52 41l.48-.46 2.53 2.6 1.86-1.81-2.96-3.02zM2 34.38L2.24 33l.47.07-.27 1.42L3.77 34l.16.44-1.35.46 1.11.94-.32.36-1.07-1-.25 1.42-.48-.09.28-1.42-1.34.48-.15-.39 1.34-.47-1.11-.93.33-.36 1.08.94z"/></g><defs><clipPath id="clip0"><path d="M0 0h68.93v55.46H0z"/></clipPath></symbol></defs></svg> 

